PathFileType	4	(x/y/z)	TRC_MarkerData\Passive\Passive_Pref0006.trc
DataRate	CameraRate	NumFrames	NumMarkers	Units	OrigDataRate	OrigDataStartFrame	OrigNumFrames
240	240	5	49	mm	240	157	313
Frame#	Time	R_AC			L_AC			HEAD			STERN			C7			R_IC			L_ASIS			R_ASIS			L_GT			R_GT			L_PSIS			R_PSIS			SACRAL			L_LAT_KNEE			L_MED_KNEE			R_LAT_KNEE			R_MED_KNEE			L_LAT_ANK			L_MED_ANK			R_LAT_ANK			R_MED_ANK			L_THIGH_PROX_POST			L_THIGH_PROX_ANT			L_THIGH_DIST_ANT			L_THIGH_DIST_POST			R_THIGH_PROX_POST			R_THIGH_PROX_ANT			R_THIGH_DIST_ANT			R_THIGH_DIST_POST			L_SHANK_PROX_POST			L_SHANK_PROX_ANT			L_SHANK_DIST_ANT			L_SHANK_DIST_POST			R_SHANK_PROX_POST			R_SHANK_PROX_ANT			R_SHANK_DIST_ANT			R_SHANK_DIST_POST			L_HEEL_LAT			L_HEEL_SUP			L_HEEL_MED			R_HEEL_LAT			R_HEEL_SUP			R_HEEL_MED			L_1ST_MET			L_5TH_MET			L_TOE			R_1ST_MET			R_5TH_MET			R_TOE			
		X1	Y1	Z1	X2	Y2	Z2	X3	Y3	Z3	X4	Y4	Z4	X5	Y5	Z5	X6	Y6	Z6	X7	Y7	Z7	X8	Y8	Z8	X9	Y9	Z9	X10	Y10	Z10	X11	Y11	Z11	X12	Y12	Z12	X13	Y13	Z13	X14	Y14	Z14	X15	Y15	Z15	X16	Y16	Z16	X17	Y17	Z17	X18	Y18	Z18	X19	Y19	Z19	X20	Y20	Z20	X21	Y21	Z21	X22	Y22	Z22	X23	Y23	Z23	X24	Y24	Z24	X25	Y25	Z25	X26	Y26	Z26	X27	Y27	Z27	X28	Y28	Z28	X29	Y29	Z29	X30	Y30	Z30	X31	Y31	Z31	X32	Y32	Z32	X33	Y33	Z33	X34	Y34	Z34	X35	Y35	Z35	X36	Y36	Z36	X37	Y37	Z37	X38	Y38	Z38	X39	Y39	Z39	X40	Y40	Z40	X41	Y41	Z41	X42	Y42	Z42	X43	Y43	Z43	X44	Y44	Z44	X45	Y45	Z45	X46	Y46	Z46	X47	Y47	Z47	X48	Y48	Z48	X49	Y49	Z49	

157	0.65208	-43.69	1487.5	465.11	-88.999	1520.3	58.34	-50.922	1831.5	283.74	-1.2087	1471.4	258.05	-133.02	1551.4	266.59	-77.59	1072.2	432.79	-57.343	1016.2	123.16	-17.337	1024	387.74	-171.5	945.53	90.267	-85.948	944.18	447.86	-245.39	1031.4	230.85	-232.26	1023.8	338.12	-249.12	992.88	283.29	-245.82	554.46	136.64	-235.27	570.92	274.85	70	550.44	402.53	66.976	547.97	269.86	-485.47	145.13	178.55	-490.63	147.58	267.98	226.54	95.965	342.09	249.03	158.92	257.62	-223.84	779.79	109.74	-163.78	758.48	103.12	-179.15	688.95	120.6	-241.22	708.99	121.94	-34.805	760.47	444.95	27.44	788.78	436.02	52.394	717.08	426.99	-13.17	690.35	431.4	-309.44	474.88	160.47	-250.99	450.44	166.22	-271.07	404.82	176.61	-324.07	428.28	160.81	99.404	358.59	402.67	157.93	391.99	394.72	186.51	324.8	379.02	127.25	290.43	384.87	-556.05	81.094	185.46	-567.63	110.82	216.83	-563.75	85.251	251.93	194.76	23.882	298.8	179.67	56.09	269.26	213.44	49.447	240.77	-344.72	45.407	292.12	-361.06	46.112	182.67	-294.45	50.204	262.82	384.77	163.01	285.36	368.18	119.57	384.57	416.16	184.81	334.17
158	0.65626	-37.642	1486.5	465.78	-83.162	1519.6	59.091	-45.395	1830.6	284.48	4.6138	1470.5	258.69	-127.21	1550.5	267.37	-71.359	1071	432.79	-51.566	1015.2	122.92	-11.118	1023.3	387.55	-165.91	944.57	90.262	-79.386	943.41	447.72	-239.16	1030.2	230.99	-225.95	1022.5	338.19	-243	991.69	283.35	-241.41	553.75	136.66	-230.72	570.14	274.86	77.148	549.99	401.44	73.299	547.56	268.99	-484.48	146.21	178.62	-489.58	148.71	268.07	229.02	94.642	340.77	251.75	156.37	255.65	-218.79	779.11	109.67	-158.76	757.63	103.04	-174.31	688.15	120.54	-236.35	708.36	121.95	-27.835	759.85	444.48	34.308	788.28	435.44	59.389	716.64	426.14	-6.1127	689.79	430.72	-305.67	474.67	160.5	-247.41	449.77	166.24	-267.86	404.32	176.63	-320.68	428.2	160.84	105.33	357.87	401.65	164.07	390.74	393.06	191.87	323.25	377.19	132.38	289.45	383.73	-555.54	82.682	185.57	-566.77	112.49	217.01	-563.18	86.888	252.03	195.67	23	298.15	181.23	55.172	268.34	214.63	47.541	239.81	-344.46	45.443	292.14	-360.79	46.264	182.7	-294.14	49.942	262.84	387.65	158.93	282.49	370.95	116.78	382.27	419.7	180.68	331.03
159	0.66044	-31.603	1485.5	466.47	-77.305	1518.9	59.854	-39.857	1829.8	285.22	10.454	1469.7	259.34	-121.4	1549.5	268.15	-65.122	1069.8	432.78	-45.739	1014.1	122.69	-4.8769	1022.6	387.36	-160.27	943.61	90.246	-72.791	942.68	447.58	-232.89	1029	231.1	-219.62	1021.2	338.24	-236.84	990.5	283.39	-236.88	553.02	136.66	-226.05	569.35	274.86	84.239	549.55	400.4	79.519	547.13	268.15	-483.42	147.37	178.68	-488.45	149.92	268.17	231.47	93.431	339.51	254.46	153.87	253.73	-213.67	778.41	109.6	-153.67	756.77	102.95	-169.39	687.34	120.47	-231.39	707.72	121.95	-20.863	759.25	444.05	41.179	787.8	434.87	66.362	716.2	425.31	0.91423	689.26	430.07	-301.79	474.47	160.53	-243.74	449.09	166.25	-264.55	403.8	176.64	-317.18	428.13	160.87	111.25	357.19	400.65	170.19	389.53	391.42	197.22	321.75	375.38	137.51	288.52	382.62	-554.97	84.376	185.67	-565.84	114.26	217.17	-562.56	88.637	252.14	196.48	22.307	297.58	182.73	54.44	267.48	215.72	45.761	238.93	-344.18	45.49	292.17	-360.5	46.432	182.73	-293.83	49.672	262.87	390.52	154.79	279.64	373.7	113.98	379.97	423.27	176.46	327.91
160	0.66462	-25.572	1484.5	467.18	-71.432	1518.3	60.627	-34.308	1829	285.97	16.313	1468.9	260.01	-115.58	1548.6	268.95	-58.883	1068.7	432.77	-39.863	1013.1	122.46	1.3818	1021.9	387.16	-154.58	942.65	90.221	-66.172	941.98	447.44	-226.56	1027.8	231.2	-213.28	1019.9	338.27	-230.64	989.31	283.41	-232.23	552.26	136.67	-221.26	568.52	274.85	91.268	549.13	399.39	85.631	546.71	267.34	-482.28	148.59	178.75	-487.25	151.2	268.26	233.9	92.334	338.31	257.16	151.44	251.87	-208.47	777.71	109.54	-148.51	755.9	102.87	-164.38	686.52	120.4	-226.34	707.06	121.96	-13.891	758.69	443.64	48.048	787.33	434.33	73.309	715.77	424.53	7.9061	688.75	429.44	-297.8	474.26	160.55	-239.96	448.4	166.25	-261.15	403.29	176.66	-313.58	428.06	160.9	117.17	356.54	399.7	176.29	388.39	389.82	202.57	320.32	373.61	142.67	287.65	381.56	-554.35	86.187	185.78	-564.84	116.15	217.33	-561.88	90.507	252.24	197.2	21.804	297.1	184.19	53.895	266.71	216.73	44.121	238.13	-343.89	45.548	292.2	-360.19	46.619	182.76	-293.5	49.392	262.9	393.37	150.62	276.84	376.4	111.15	377.7	426.84	172.16	324.83
161	0.6688	-19.55	1483.5	467.9	-65.545	1517.6	61.408	-28.75	1828.2	286.72	22.188	1468.2	260.71	-109.75	1547.7	269.75	-52.642	1067.5	432.74	-33.94	1012.1	122.23	7.6534	1021.3	386.96	-148.84	941.68	90.185	-59.534	941.33	447.31	-220.21	1026.5	231.26	-206.96	1018.6	338.29	-224.42	988.12	283.42	-227.45	551.49	136.67	-216.33	567.68	274.84	98.232	548.74	398.44	91.635	546.29	266.56	-481.06	149.9	178.81	-485.95	152.56	268.36	236.32	91.348	337.19	259.86	149.1	250.09	-203.2	776.99	109.48	-143.26	755.04	102.79	-159.26	685.71	120.32	-221.18	706.39	121.97	-6.9243	758.17	443.26	54.913	786.88	433.81	80.226	715.35	423.77	14.86	688.27	428.85	-293.69	474.05	160.57	-236.07	447.7	166.26	-257.64	402.77	176.66	-309.87	428	160.92	123.09	355.95	398.78	182.36	387.31	388.27	207.92	318.98	371.89	147.84	286.84	380.56	-553.67	88.123	185.9	-563.77	118.18	217.48	-561.14	92.511	252.35	197.87	21.485	296.7	185.62	53.535	266.01	217.67	42.632	237.41	-343.6	45.62	292.23	-359.87	46.827	182.79	-293.15	49.102	262.93	396.21	146.43	274.13	379.08	108.31	375.48	430.43	167.81	321.83
